<svg id="svg" version="1.1" width="30" viewBox="0 0 192 206" xmlns="http://www.w3.org/2000/svg"><path d="M34.360 19.195 C 19.639 34.547,10.799 54.476,8.045 78.524 C 7.479 83.461,7.013 96.643,7.008 107.817 C 7.000 128.108,7.003 128.138,9.574 131.508 C 15.231 138.924,17.442 150.268,14.968 159.177 C 14.406 161.199,12.369 165.147,10.441 167.950 L 6.935 173.046 7.217 184.273 L 7.500 195.500 34.250 195.766 L 61.000 196.033 61.000 184.213 C 61.000 172.649,60.935 172.306,57.995 168.307 C 50.127 157.609,49.945 143.901,57.526 132.963 L 60.251 129.030 88.999 128.765 L 117.747 128.500 87.936 107.000 C 67.238 92.072,58.106 84.916,58.062 83.590 C 58.028 82.540,55.581 79.145,52.625 76.046 C 41.832 64.730,37.964 51.271,40.112 32.500 C 40.679 27.550,40.998 21.091,40.821 18.146 L 40.500 12.791 34.360 19.195 " stroke="none" fill="white" fill-rule="evenodd"/>
<path d="M128.000 27.900 C 128.000 39.784,128.004 39.806,131.413 44.871 C 133.290 47.660,135.365 51.575,136.023 53.570 C 137.737 58.762,136.853 68.647,134.197 74.000 C 129.623 83.216,132.621 82.437,99.586 83.000 L 70.257 83.500 83.275 93.000 C 90.435 98.225,103.974 108.030,113.361 114.788 C 130.356 127.024,132.308 128.693,131.380 130.194 C 131.112 130.628,133.316 133.349,136.277 136.241 C 142.243 142.068,147.093 151.160,148.930 159.962 C 149.695 163.628,149.854 171.351,149.412 183.462 L 148.755 201.500 153.497 197.000 C 164.209 186.835,173.181 171.976,177.923 156.546 C 182.079 143.027,183.000 134.127,183.000 107.504 C 183.000 84.432,182.841 82.065,181.141 79.885 C 173.036 69.485,172.443 56.486,179.590 45.866 L 183.000 40.799 183.000 28.400 L 183.000 16.000 155.500 16.000 L 128.000 16.000 128.000 27.900 " stroke="none" fill="#CA5118" fill-rule="evenodd"/></svg>